HIERARCHY
ROOT Hips
{
	OFFSET 0.000000 89.005402 0.000000
	CHANNELS 6 Xposition Yposition Zposition Xrotation Yrotation Zrotation
	JOINT Spine
	{
		OFFSET 0.116900 10.681000 0.373400
		CHANNELS 3 Xrotation Yrotation Zrotation
		JOINT Spine1
		{
			OFFSET 0.000000 13.840401 0.053500
			CHANNELS 3 Xrotation Yrotation Zrotation
			JOINT Spine2
			{
				OFFSET 0.000000 14.712700 -0.366200
				CHANNELS 3 Xrotation Yrotation Zrotation
				JOINT Neck
				{
					OFFSET 0.000000 35.415497 -3.314200
					CHANNELS 3 Xrotation Yrotation Zrotation
					JOINT Head
					{
						OFFSET 0.000000 16.899200 1.218300
						CHANNELS 3 Xrotation Yrotation Zrotation
						JOINT HeadTop_End
						{
							OFFSET 0.000000 22.206207 2.192500
							CHANNELS 3 Xrotation Yrotation Zrotation
							End Site
							{
								OFFSET 0.000000 22.314178 0.000000
							}
						}
					}
				}
				JOINT LeftShoulder
				{
					OFFSET 12.896400 26.716293 -4.548400
					CHANNELS 3 Xrotation Yrotation Zrotation
					JOINT LeftArm
					{
						OFFSET 19.027000 -4.857010 -1.718400
						CHANNELS 3 Xrotation Yrotation Zrotation
						JOINT LeftForeArm
						{
							OFFSET 24.179897 0.000000 0.000000
							CHANNELS 3 Xrotation Yrotation Zrotation
							JOINT LeftHand
							{
								OFFSET 27.156403 0.000000 0.000000
								CHANNELS 3 Xrotation Yrotation Zrotation
								JOINT LeftHandIndex1
								{
									OFFSET 16.441200 0.000000 0.000000
									CHANNELS 3 Xrotation Yrotation Zrotation
									JOINT LeftHandIndex2
									{
										OFFSET 4.821899 0.000000 0.000000
										CHANNELS 3 Xrotation Yrotation Zrotation
										JOINT LeftHandIndex3
										{
											OFFSET 6.386497 0.000000 0.000000
											CHANNELS 3 Xrotation Yrotation Zrotation
											JOINT LeftHandIndex4
											{
												OFFSET 5.188988 0.000000 0.000000
												CHANNELS 3 Xrotation Yrotation Zrotation
												End Site
												{
													OFFSET -0.178703 5.185913 0.000177
												}
											}
										}
									}
								}
								JOINT LeftHandThumb1
								{
									OFFSET 6.534897 -5.032593 5.900300
									CHANNELS 3 Xrotation Yrotation Zrotation
									JOINT LeftHandThumb2
									{
										OFFSET 3.818176 -2.204422 2.204423
										CHANNELS 3 Xrotation Yrotation Zrotation
										JOINT LeftHandThumb3
										{
											OFFSET 3.252098 -1.877594 1.877601
											CHANNELS 3 Xrotation Yrotation Zrotation
											JOINT LeftHandThumb4
											{
												OFFSET 5.251778 -3.032120 3.032117
												CHANNELS 3 Xrotation Yrotation Zrotation
												End Site
												{
													OFFSET 0.000023 6.780014 0.000000
												}
											}
										}
									}
								}
							}
						}
					}
				}
				JOINT RightShoulder
				{
					OFFSET -12.896300 26.716293 -4.548400
					CHANNELS 3 Xrotation Yrotation Zrotation
					JOINT RightArm
					{
						OFFSET -19.027000 -4.857010 -1.718400
						CHANNELS 3 Xrotation Yrotation Zrotation
						JOINT RightForeArm
						{
							OFFSET -24.179897 0.000000 0.000000
							CHANNELS 3 Xrotation Yrotation Zrotation
							JOINT RightHand
							{
								OFFSET -27.156403 0.000000 0.000000
								CHANNELS 3 Xrotation Yrotation Zrotation
								JOINT RightHandThumb1
								{
									OFFSET -6.591202 -4.852203 5.988100
									CHANNELS 3 Xrotation Yrotation Zrotation
									JOINT RightHandThumb2
									{
										OFFSET -3.818176 -2.204422 2.204423
										CHANNELS 3 Xrotation Yrotation Zrotation
										JOINT RightHandThumb3
										{
											OFFSET -3.252098 -1.877594 1.877601
											CHANNELS 3 Xrotation Yrotation Zrotation
											JOINT RightHandThumb4
											{
												OFFSET -5.251778 -3.032120 3.032117
												CHANNELS 3 Xrotation Yrotation Zrotation
												End Site
												{
													OFFSET -0.000023 6.780014 0.000000
												}
											}
										}
									}
								}
								JOINT RightHandIndex1
								{
									OFFSET -16.029404 0.000000 0.000000
									CHANNELS 3 Xrotation Yrotation Zrotation
									JOINT RightHandIndex2
									{
										OFFSET -5.213303 0.000000 0.000000
										CHANNELS 3 Xrotation Yrotation Zrotation
										JOINT RightHandIndex3
										{
											OFFSET -6.386528 0.000000 0.000000
											CHANNELS 3 Xrotation Yrotation Zrotation
											JOINT RightHandIndex4
											{
												OFFSET -5.189026 0.000000 0.000000
												CHANNELS 3 Xrotation Yrotation Zrotation
												End Site
												{
													OFFSET 0.236702 5.183624 0.001972
												}
											}
										}
									}
								}
							}
						}
					}
				}
			}
		}
	}
	JOINT LeftUpLeg
	{
		OFFSET 14.073000 -7.904099 -1.463000
		CHANNELS 3 Xrotation Yrotation Zrotation
		JOINT LeftLeg
		{
			OFFSET -0.109806 -34.073280 4.093200
			CHANNELS 3 Xrotation Yrotation Zrotation
			JOINT LeftFoot
			{
				OFFSET 0.109806 -29.899420 -6.319000
				CHANNELS 3 Xrotation Yrotation Zrotation
				JOINT LeftToeBase
				{
					OFFSET 1.551100 -14.988700 20.535801
					CHANNELS 3 Xrotation Yrotation Zrotation
					JOINT LeftToe_End
					{
						OFFSET 0.221200 0.570800 13.248301
						CHANNELS 3 Xrotation Yrotation Zrotation
						End Site
						{
							OFFSET 0.000000 13.262435 0.000000
						}
					}
				}
			}
		}
	}
	JOINT RightUpLeg
	{
		OFFSET -13.839300 -7.904099 -1.463000
		CHANNELS 3 Xrotation Yrotation Zrotation
		JOINT RightLeg
		{
			OFFSET 0.109694 -34.073219 4.093300
			CHANNELS 3 Xrotation Yrotation Zrotation
			JOINT RightFoot
			{
				OFFSET -0.109694 -29.899384 -6.319200
				CHANNELS 3 Xrotation Yrotation Zrotation
				JOINT RightToeBase
				{
					OFFSET -1.551100 -14.988700 20.535801
					CHANNELS 3 Xrotation Yrotation Zrotation
					JOINT RightToe_End
					{
						OFFSET -0.221200 0.570900 13.248299
						CHANNELS 3 Xrotation Yrotation Zrotation
						End Site
						{
							OFFSET 0.000000 13.262440 0.000000
						}
					}
				}
			}
		}
	}
}
MOTION
Frames: 4
Frame Time: 0.033333
-41.695816 37.044289 -12.536194 17.202366 4.202801 8.885964 17.918714 1.759773 3.066366 14.512757 0.607189 1.045267 14.503355 -0.118821 0.894222 -5.715490 -0.315490 -8.046757 -52.965371 2.907148 -15.745280 0.000000 0.000001 -0.000000 -0.408854 6.678991 -0.315383 -10.282067 -67.464374 -25.168260 -0.000224 -92.777963 -0.000242 -98.919137 -3.788771 22.221969 1.048870 3.658015 -31.989102 1.048867 3.658015 -31.989106 0.267040 1.902613 -15.977802 0.000000 -0.000000 0.000001 -2.565716 -4.554295 24.134477 1.988125 3.569025 -3.175237 -1.447664 -0.616425 0.425950 -0.000000 -0.000001 -0.000001 6.252755 27.668348 -15.521772 -11.622055 -14.202789 67.976160 -0.000042 106.698326 0.000046 5.318142 19.278511 7.006084 11.413571 6.216299 -6.058466 -12.782107 -3.599768 -8.270319 -11.234819 5.151970 -3.819932 -0.000001 0.000000 0.000000 3.958615 -6.275009 64.460607 3.958628 -6.275003 64.460621 1.067716 -3.707543 32.121779 -0.000001 -0.000001 0.000002 -110.912785 -17.182936 25.329359 96.900010 -14.912403 0.707805 -4.676531 -14.750340 -25.544981 -0.000039 0.000007 0.000005 -0.000000 -0.000000 0.000000 4.764622 29.783842 -56.443355 131.108281 34.632932 4.385980 -50.672941 1.356295 12.731748 -75.427637 -8.842406 14.067790 -0.000000 0.000000 -0.000000 
-41.650513 37.018761 -12.561752 17.128357 4.216567 8.841117 17.921339 1.769734 3.044461 14.513578 0.624948 1.022774 14.505628 -0.105105 0.867927 -5.716519 -0.334669 -8.107377 -52.919691 2.725704 -15.735323 -0.000000 0.000001 -0.000001 -0.415869 6.709108 -0.256240 -10.614438 -67.517608 -25.507140 -0.001733 -92.815536 -0.001739 -98.990936 -3.854675 22.261890 1.048872 3.658015 -31.989099 1.048867 3.658015 -31.989102 0.267040 1.902613 -15.977802 -0.000000 -0.000000 -0.000000 -2.565712 -4.554292 24.134479 1.988125 3.569028 -3.175234 -1.447662 -0.616424 0.425949 0.000002 -0.000000 0.000001 6.381453 27.802396 -15.994003 -11.358710 -14.492176 68.379483 0.000048 106.699296 -0.000061 5.258798 19.610431 6.642160 11.413571 6.216298 -6.058467 -12.782107 -3.599768 -8.270322 -11.234817 5.151971 -3.819935 0.000001 0.000000 -0.000000 3.958615 -6.275010 64.460614 3.958628 -6.275003 64.460627 1.067716 -3.707544 32.121782 0.000001 -0.000001 -0.000002 -110.982596 -17.195177 25.278388 96.933778 -14.909377 0.717668 -4.627489 -14.873608 -25.508298 -0.000039 0.000007 0.000005 0.000000 -0.000000 -0.000000 4.981903 29.679627 -56.594217 131.084062 34.690889 4.409801 -50.752868 1.250595 12.829371 -75.067228 -8.923535 14.345801 0.000000 0.000000 -0.000000 
-41.596558 36.989853 -12.587284 17.039672 4.220969 8.803317 17.927988 1.779070 3.016245 14.518522 0.641665 0.993700 14.512281 -0.093687 0.834691 -5.728407 -0.347684 -8.142158 -52.869008 2.585163 -15.719795 0.000000 -0.000001 -0.000000 -0.421935 6.728741 -0.200851 -10.915933 -67.565768 -25.806442 -0.001687 -92.863805 -0.001724 -99.014794 -3.932936 22.345700 1.048871 3.658014 -31.989102 1.048867 3.658013 -31.989102 0.267041 1.902613 -15.977802 -0.000000 0.000000 0.000001 -2.565712 -4.554292 24.134475 1.988126 3.569029 -3.175235 -1.447665 -0.616424 0.425950 0.000001 -0.000000 0.000002 6.520537 27.948665 -16.491813 -11.071315 -14.788881 68.802627 0.000109 106.693729 -0.000116 5.172527 19.982932 6.257529 11.413571 6.216298 -6.058466 -12.782107 -3.599765 -8.270325 -11.234817 5.151972 -3.819936 0.000001 -0.000000 0.000001 3.958616 -6.275009 64.460621 3.958628 -6.275005 64.460621 1.067714 -3.707543 32.121779 0.000001 -0.000001 0.000000 -111.039997 -17.207215 25.229757 96.980572 -14.910633 0.728967 -4.597577 -15.014083 -25.474751 -0.000039 0.000007 0.000005 -0.000000 -0.000000 0.000000 5.236000 29.579497 -56.775029 131.047302 34.747153 4.426956 -50.823516 1.145984 12.956721 -74.705085 -9.002818 14.625433 -0.000000 0.000000 -0.000000 
-41.532375 36.956894 -12.612520 16.938999 4.212456 8.771760 17.931883 1.789421 2.986710 14.524742 0.657736 0.961170 14.516835 -0.084357 0.798180 -5.752586 -0.350672 -8.152757 -52.807713 2.509475 -15.705562 0.000000 0.000001 0.000000 -0.424524 6.732817 -0.172561 -11.150152 -67.601381 -26.029173 -0.001636 -92.924157 -0.001650 -98.995696 -4.016760 22.471604 1.048872 3.658015 -31.989099 1.048868 3.658013 -31.989109 0.267041 1.902614 -15.977802 -0.000002 0.000000 0.000001 -2.565713 -4.554297 24.134475 1.988126 3.569029 -3.175235 -1.447665 -0.616425 0.425950 0.000001 -0.000000 0.000001 6.670085 28.108969 -17.013306 -10.760786 -15.086150 69.246022 0.000039 106.682931 -0.000065 5.060024 20.379640 5.864936 11.413571 6.216299 -6.058468 -12.782109 -3.599766 -8.270323 -11.234818 5.151970 -3.819934 0.000001 0.000001 -0.000003 3.958614 -6.275008 64.460614 3.958628 -6.275003 64.460621 1.067713 -3.707543 32.121782 0.000001 -0.000001 0.000002 -111.088710 -17.221967 25.189099 97.043034 -14.918231 0.737576 -4.582455 -15.167238 -25.439005 -0.000039 0.000007 0.000005 -0.000000 -0.000000 -0.000000 5.512583 29.496326 -56.986956 130.997796 34.794158 4.432142 -50.869579 1.059208 13.115573 -74.375412 -9.076260 14.874528 0.000000 -0.000000 -0.000000 
